<?xml version="1.0" standalone="no"?><!DOCTYPE svg PUBLIC "-//W3C//DTD SVG 1.1//EN" "http://www.w3.org/Graphics/SVG/1.1/DTD/svg11.dtd"><svg t="1573727839112" class="icon" viewBox="0 0 1119 1024" version="1.1" xmlns="http://www.w3.org/2000/svg" p-id="11429" xmlns:xlink="http://www.w3.org/1999/xlink" width="139.875" height="128"><defs><style type="text/css"></style></defs><path d="M559.627907 1024C276.861023 1024 47.627907 794.766884 47.627907 512S276.861023 0 559.627907 0 1071.627907 229.233116 1071.627907 512 842.394791 1024 559.627907 1024z m0-71.44186C802.93507 952.55814 1000.186047 755.307163 1000.186047 512S802.93507 71.44186 559.627907 71.44186 119.069767 268.692837 119.069767 512 316.320744 952.55814 559.627907 952.55814z" p-id="11430" fill="#ffffff"></path><path d="M270.907535 381.023256h50.771349l104.20986 261.953488H378.165581l-24.814139-65.678884h-114.116465L214.420837 642.976744H166.697674l104.209861-261.953488z m-18.336744 161.053767h87.421023l-42.746047-114.830883h-1.524093l-43.127069 114.830883z m200.037209-161.053767h112.973395c65.65507 0 98.875535 26.790698 98.875535 80.348279 0 53.938605-33.220465 81.086512-99.637581 81.086512h-67.560186V642.976744h-44.651163V381.023256z m44.651163 36.673488v88.064h64.893023c19.860837 0 34.363535-3.667349 43.508093-10.263814 9.168372-6.977488 13.740651-18.336744 13.740651-34.125395s-4.953302-26.790698-14.121674-33.387163c-9.144558-6.977488-23.67107-10.263814-43.12707-10.263814h-64.893023zM681.626791 381.023256H904.930233v36.673488h-89.302326V642.976744h-44.674977v-225.28h-89.302325V381.023256z" p-id="11431" fill="#ffffff"></path></svg>