<?xml version="1.0" standalone="no"?><!DOCTYPE svg PUBLIC "-//W3C//DTD SVG 1.1//EN" "http://www.w3.org/Graphics/SVG/1.1/DTD/svg11.dtd"><svg t="1573727892272" class="icon" viewBox="0 0 1024 1024" version="1.1" xmlns="http://www.w3.org/2000/svg" p-id="14712" xmlns:xlink="http://www.w3.org/1999/xlink" width="128" height="128"><defs><style type="text/css"></style></defs><path d="M736 640.32h-448c-17.6 0-32 14.4-32 32s14.4 32 32 32h448c17.6 0 32-14.4 32-32s-14.4-32-32-32zM736 768.192h-448c-17.6 0-32 14.4-32 32s14.4 32 32 32h448c17.6 0 32-14.4 32-32 0-17.536-14.4-32-32-32z" p-id="14713" fill="#ffffff"></path><path d="M832 64H192c-35.2 0-64 28.8-64 64v768c0 35.2 28.8 64 64 64h640c35.2 0 64-28.8 64-64V128c0-35.2-28.8-64-64-64z m0 800c0 17.6-14.4 32-32 32h-576a32.064 32.064 0 0 1-32-32v-704c0-17.6 14.4-32 32-32h576c17.6 0 32 14.4 32 32v704z" p-id="14714" fill="#ffffff"></path><path d="M511.104 192.32a191.168 191.168 0 1 0 0 382.336 191.168 191.168 0 0 0 0-382.336z m0 64c59.2 0 108.608 40.832 122.752 95.68H388.352a127.104 127.104 0 0 1 122.752-95.68z m0 254.4A127.104 127.104 0 0 1 388.608 416H633.6a127.104 127.104 0 0 1-122.496 94.72z" p-id="14715" fill="#ffffff"></path></svg>