<?xml version="1.0" standalone="no"?><!DOCTYPE svg PUBLIC "-//W3C//DTD SVG 1.1//EN" "http://www.w3.org/Graphics/SVG/1.1/DTD/svg11.dtd"><svg t="1573729273158" class="icon" viewBox="0 0 1024 1024" version="1.1" xmlns="http://www.w3.org/2000/svg" p-id="20135" xmlns:xlink="http://www.w3.org/1999/xlink" width="128" height="128"><defs><style type="text/css"></style></defs><path d="M480.000848 895.976262H128.010173V63.998304h639.983045v223.994066c0 17.699531 14.299621 31.999152 31.999152 31.999152s31.999152-14.299621 31.999152-31.999152V63.998304c0-35.299065-28.69924-63.998304-63.998304-63.998304H128.010173C92.711109 0 64.011869 28.69924 64.011869 63.998304v831.977958c0 35.299065 28.69924 63.998304 63.998304 63.998304h351.990675c17.699531 0 31.999152-14.299621 31.999152-31.999152s-14.299621-31.999152-31.999152-31.999152z" fill="#ffffff" p-id="20136"></path><path d="M703.994913 286.692404c0-17.699531-14.299621-31.999152-31.999152-31.999152H224.00763c-17.699531 0-31.999152 14.299621-31.999152 31.999152s14.299621 31.999152 31.999152 31.999153h447.988131c17.699531 0 31.999152-14.299621 31.999152-31.999153zM448.001696 446.688165c0-17.699531-14.299621-31.999152-31.999153-31.999152H224.00763c-17.699531 0-31.999152 14.299621-31.999152 31.999152s14.299621 31.999152 31.999152 31.999153h191.994913c17.699531 0 31.999152-14.299621 31.999153-31.999153zM224.00763 574.684774c-17.699531 0-31.999152 14.299621-31.999152 31.999152s14.299621 31.999152 31.999152 31.999153h127.996609c17.699531 0 31.999152-14.299621 31.999152-31.999153s-14.299621-31.999152-31.999152-31.999152H224.00763zM894.389869 450.488065c-42.298879-42.298879-98.597388-65.598262-158.395804-65.598262s-116.096924 23.299383-158.395803 65.598262C535.299383 492.786944 512 548.985455 512 608.883868s23.299383 116.096924 65.598262 158.395804c9.499748 9.499748 19.599481 17.999523 30.399195 25.499324V990.973745c0 12.199677 6.699822 23.299383 17.399539 29.099229 10.699717 5.799846 23.699372 5.099865 33.899102-1.599958l76.697967-51.098646 76.697968 51.098646c5.499854 3.699902 11.899685 5.499854 18.299516 5.499855 5.29986 0 10.699717-1.299966 15.599586-3.899897 10.699717-5.799846 17.399539-16.899552 17.399539-29.099229V792.678999c10.799714-7.499801 20.899446-15.999576 30.399195-25.499325 42.298879-42.298879 65.598262-98.597388 65.598262-158.395803s-23.299383-115.996927-65.598262-158.295806zM799.99237 933.075279l-63.998305-42.698869-63.998304 42.698869V823.57818c20.499457 6.099838 41.998887 9.199756 63.998304 9.199756s43.498848-3.199915 63.998305-9.199756v109.497099z m-63.998305-164.19565c-42.698869 0-82.897804-16.59956-113.097003-46.898757-30.1992-30.1992-46.898757-70.398135-46.898758-113.097004 0-88.197663 71.798098-159.995761 159.995761-159.995761s159.995761 71.798098 159.995762 159.995761-71.798098 159.995761-159.995762 159.995761z" fill="#ffffff" p-id="20137"></path><path d="M735.994065 511.986435c-52.898598 0-95.997457 43.098858-95.997456 95.997457 0 25.599322 9.999735 49.798681 28.099255 67.898201C686.195385 693.981614 710.394744 703.981349 735.994065 703.981349c52.898598 0 95.997457-43.098858 95.997457-95.997457s-43.098858-95.997457-95.997457-95.997457z m0 127.996609c-8.499775 0-16.59956-3.299913-22.599401-9.399751S703.994913 616.483667 703.994913 607.983892c0-17.599534 14.399618-31.999152 31.999152-31.999152s31.999152 14.399618 31.999153 31.999152-14.399618 31.999152-31.999153 31.999152z" fill="#ffffff" p-id="20138"></path></svg>