<?xml version="1.0" standalone="no"?><!DOCTYPE svg PUBLIC "-//W3C//DTD SVG 1.1//EN" "http://www.w3.org/Graphics/SVG/1.1/DTD/svg11.dtd"><svg t="1573727533548" class="icon" viewBox="0 0 1024 1024" version="1.1" xmlns="http://www.w3.org/2000/svg" p-id="6611" xmlns:xlink="http://www.w3.org/1999/xlink" width="128" height="128"><defs><style type="text/css"></style></defs><path d="M108.8 529.6c-8 0-12.8 3.2-19.2 8-4.8 4.8-8 11.2-8 17.6 0 8 3.2 14.4 8 19.2 4.8 4.8 11.2 6.4 19.2 6.4 6.4 0 12.8-1.6 17.6-6.4 4.8-4.8 8-11.2 8-19.2s-3.2-12.8-8-19.2c-3.2-4.8-9.6-6.4-17.6-6.4z m232-27.2c-4.8 0-9.6 1.6-12.8 4.8-3.2 3.2-6.4 8-9.6 12.8-4.8 9.6-11.2 16-17.6 20.8-6.4 4.8-14.4 6.4-24 6.4-6.4 0-14.4-1.6-19.2-4.8-6.4-3.2-11.2-6.4-14.4-12.8-4.8-4.8-8-11.2-9.6-19.2-1.6-8-3.2-16-3.2-24 0-19.2 4.8-33.6 12.8-44.8 8-11.2 19.2-16 33.6-16 9.6 0 17.6 1.6 24 6.4 6.4 4.8 12.8 11.2 17.6 19.2 3.2 4.8 6.4 8 9.6 9.6 3.2 1.6 6.4 3.2 9.6 3.2 6.4 0 11.2-1.6 16-6.4 4.8-3.2 6.4-8 6.4-14.4 0-4.8-1.6-11.2-6.4-17.6-3.2-6.4-9.6-12.8-16-17.6-6.4-6.4-16-9.6-25.6-14.4-9.6-3.2-22.4-4.8-33.6-4.8-19.2 0-36.8 4.8-51.2 12.8-14.4 8-25.6 19.2-33.6 35.2-8 14.4-11.2 32-11.2 51.2 0 28.8 8 51.2 24 68.8 16 17.6 40 25.6 68.8 25.6 14.4 0 25.6-1.6 36.8-4.8 11.2-3.2 20.8-8 27.2-14.4 8-6.4 12.8-12.8 16-19.2 3.2-6.4 4.8-12.8 4.8-19.2 0-4.8-1.6-9.6-6.4-14.4-1.6-6.4-6.4-8-12.8-8z m214.4-88c-8-8-19.2-16-30.4-19.2-11.2-4.8-25.6-6.4-40-6.4-14.4 0-27.2 1.6-38.4 6.4-11.2 4.8-22.4 11.2-30.4 19.2s-14.4 19.2-19.2 30.4c-4.8 11.2-6.4 25.6-6.4 40 0 14.4 1.6 27.2 6.4 40 4.8 11.2 11.2 22.4 19.2 30.4s19.2 16 30.4 19.2c11.2 4.8 24 6.4 38.4 6.4 14.4 0 27.2-1.6 40-6.4 11.2-4.8 22.4-11.2 30.4-19.2s14.4-19.2 19.2-30.4c4.8-11.2 6.4-25.6 6.4-40 0-14.4-1.6-27.2-6.4-40-4.8-11.2-11.2-20.8-19.2-30.4z m-35.2 115.2c-8 11.2-20.8 16-35.2 16-9.6 0-17.6-3.2-25.6-8-6.4-4.8-12.8-12.8-16-20.8-3.2-9.6-6.4-20.8-6.4-32 0-12.8 1.6-24 6.4-33.6 3.2-9.6 9.6-16 16-20.8 6.4-4.8 16-8 24-8 14.4 0 25.6 4.8 35.2 16 8 11.2 12.8 25.6 12.8 44.8 1.6 20.8-1.6 36.8-11.2 46.4z m363.2-112c-4.8-9.6-11.2-17.6-20.8-22.4-9.6-4.8-20.8-8-33.6-8-11.2 0-20.8 1.6-30.4 6.4-9.6 4.8-17.6 11.2-25.6 22.4-4.8-9.6-12.8-17.6-20.8-22.4-8-4.8-19.2-6.4-30.4-6.4s-22.4 1.6-32 6.4c-9.6 4.8-17.6 11.2-27.2 22.4v-4.8c0-8-1.6-14.4-6.4-17.6-4.8-4.8-9.6-6.4-16-6.4s-12.8 1.6-16 6.4c-4.8 4.8-6.4 11.2-6.4 20.8v136c0 9.6 1.6 17.6 6.4 22.4 4.8 4.8 11.2 8 17.6 8 8 0 12.8-3.2 17.6-8 4.8-4.8 6.4-12.8 6.4-22.4v-64c0-20.8 3.2-35.2 8-46.4 4.8-11.2 16-16 30.4-16 8 0 12.8 1.6 17.6 6.4 3.2 4.8 6.4 9.6 6.4 16 1.6 6.4 1.6 16 1.6 27.2v75.2c0 9.6 1.6 17.6 6.4 22.4 4.8 4.8 9.6 8 17.6 8 8 0 12.8-3.2 17.6-8 4.8-4.8 6.4-12.8 6.4-22.4v-64c0-20.8 1.6-35.2 4.8-43.2 3.2-6.4 8-11.2 12.8-14.4 6.4-3.2 11.2-4.8 17.6-4.8 8 0 14.4 1.6 17.6 6.4 3.2 4.8 6.4 9.6 6.4 16 1.6 6.4 1.6 14.4 1.6 24v80c0 9.6 1.6 17.6 6.4 22.4 4.8 4.8 11.2 8 17.6 8 8 0 12.8-3.2 17.6-8 4.8-4.8 6.4-12.8 6.4-22.4v-92.8c1.6-16 0-28.8-3.2-38.4z" fill="#ffffff" p-id="6612"></path></svg>