<?xml version="1.0" standalone="no"?><!DOCTYPE svg PUBLIC "-//W3C//DTD SVG 1.1//EN" "http://www.w3.org/Graphics/SVG/1.1/DTD/svg11.dtd"><svg t="1573552037027" class="icon" viewBox="0 0 1024 1024" version="1.1" xmlns="http://www.w3.org/2000/svg" p-id="10472" xmlns:xlink="http://www.w3.org/1999/xlink" width="128" height="128"><defs><style type="text/css"></style></defs><path d="M1024 339.2V256h-83.2v-83.2c0-44.8-38.4-83.2-83.2-83.2H768V0h-83.2v83.2h-128V0h-89.6v83.2h-128V0H256v83.2h-83.2c-44.8 0-83.2 38.4-83.2 83.2V256H0v83.2h83.2v128H0v83.2h83.2v128H0V768h83.2v83.2c0 44.8 38.4 83.2 83.2 83.2H256v89.6h83.2v-83.2h128v83.2h83.2v-83.2h128v83.2H768v-83.2h83.2c44.8 0 83.2-38.4 83.2-83.2V768h89.6v-83.2h-83.2v-128h83.2v-89.6h-83.2v-128h83.2z m-172.8 512H172.8V172.8h684.8v678.4h-6.4zM300.8 768h428.8c25.6 0 44.8-19.2 44.8-44.8V300.8c-6.4-25.6-25.6-44.8-51.2-44.8H300.8c-25.6 0-44.8 19.2-44.8 44.8v428.8c0 19.2 19.2 38.4 44.8 38.4z" p-id="10473" fill="#BF7A6A"></path></svg>