<?xml version="1.0" standalone="no"?><!DOCTYPE svg PUBLIC "-//W3C//DTD SVG 1.1//EN" "http://www.w3.org/Graphics/SVG/1.1/DTD/svg11.dtd"><svg t="1573549662435" class="icon" viewBox="0 0 1024 1024" version="1.1" xmlns="http://www.w3.org/2000/svg" p-id="8874" xmlns:xlink="http://www.w3.org/1999/xlink" width="128" height="128"><defs><style type="text/css"></style></defs><path d="M953.246 119.497v785.745c-0.512 1.536-1.536 3.072-1.536 4.607C936.354 985.097 888.236 1024 811.965 1024H201.797C119.895 1024 64.1 968.204 64.1 886.303V138.437c0-11.262 0.511-23.035 3.07-34.297C79.969 41.69 131.67 0.74 197.703 0.227c103.913-0.511 208.338 0 312.25 0 104.937 0 209.874-0.511 314.299 0.512 61.938 0.512 112.103 42.487 125.412 102.89 1.535 5.118 2.56 10.75 3.583 15.868z m-59.89 392.617V136.9c0-48.117-29.178-77.295-77.807-77.295H200.773c-49.14 0-77.807 29.178-77.807 78.319V885.79c0 49.653 29.178 78.83 78.83 78.83h612.217c50.165 0 79.342-29.177 79.342-79.854V512.114z" fill="#A9BD7A" p-id="8875"></path><path d="M829.881 392.844c-2.047 93.164-31.737 165.34-92.14 224.206-15.868 15.357-29.177 16.38-46.069 2.56-22.523-17.916-45.046-36.344-66.545-55.284-29.69-26.106-69.617-30.713-101.866-10.238-31.736 20.476-45.045 58.867-31.736 96.747 4.607 12.797 4.607 24.059-5.12 34.296-9.213 10.238-20.987 11.262-33.784 7.679C313.9 656.466 221.761 535.149 224.32 392.332c2.56-139.233 109.544-263.621 247.753-287.168 164.315-28.154 316.346 73.2 351.154 235.468 4.095 19.963 5.119 40.95 6.654 52.212zM708.564 559.72c60.403-62.45 85.485-175.577 31.737-273.859-54.26-98.794-169.946-147.423-278.466-117.222-108.52 29.69-181.72 128.995-178.648 240.075 3.071 109.543 80.878 189.398 141.792 210.385 1.536-9.214 2.56-17.916 4.607-26.618 2.048-9.214 5.12-18.428 8.702-27.13 38.392-85.997 150.495-110.568 221.647-48.117 16.38 14.332 32.76 28.665 48.63 42.486z" fill="#A9BD7A" p-id="8876"></path><path d="M758.73 922.135c-25.595-0.512-53.237-14.845-74.224-42.487-33.273-44.022-66.546-88.556-99.306-133.09-21.5-29.178-42.999-58.867-64.498-88.045-17.404-23.547-15.357-56.307 5.119-77.295 19.963-20.475 53.236-24.058 76.271-7.166 72.688 53.236 145.376 106.472 218.575 159.708 26.107 18.94 44.023 42.487 48.118 75.76 6.142 60.402-40.44 112.615-110.056 112.615zM565.235 620.634c1.024 3.07 1.024 4.607 2.048 5.63l158.173 213.457c4.095 5.119 8.702 10.238 13.82 14.845 17.917 15.356 45.046 13.82 60.915-3.584 15.868-17.404 15.357-44.022-2.048-60.914-5.63-5.63-11.773-10.238-18.427-14.845-69.105-50.676-138.21-101.353-207.826-151.518-1.536-1.024-3.072-1.536-6.655-3.071zM263.735 893.469c-28.154 0-50.677-22.523-50.165-50.165 0-28.154 23.035-49.653 51.189-49.653 27.642 0.512 49.653 22.523 49.653 49.653-0.512 27.642-23.035 50.165-50.677 50.165zM526.845 451.711c-27.642 0-50.677-22.523-51.189-50.165 0-27.13 22.011-49.653 49.653-50.165 28.154-0.511 51.189 21.5 51.7 49.142 0.512 27.641-22.522 51.188-50.164 51.188z" fill="#A9BD7A" p-id="8877"></path></svg>