<?xml version="1.0" standalone="no"?><!DOCTYPE svg PUBLIC "-//W3C//DTD SVG 1.1//EN" "http://www.w3.org/Graphics/SVG/1.1/DTD/svg11.dtd"><svg t="1573637548291" class="icon" viewBox="0 0 1024 1024" version="1.1" xmlns="http://www.w3.org/2000/svg" p-id="8998" xmlns:xlink="http://www.w3.org/1999/xlink" width="128" height="128"><defs><style type="text/css"></style></defs><path d="M236.32 235.313c35.812-35.937 77.512-64.154 123.939-83.86 48.048-20.397 99.106-30.74 151.756-30.74 52.65 0 103.708 10.343 151.757 30.74 46.424 19.705 88.124 47.923 123.938 83.86 35.815 35.945 63.931 63.751 83.566 110.347l51.938 0.416c-23.181-69.458-56.3-111.31-95.627-150.78-40.977-41.124-88.7-73.412-141.848-95.974C630.702 75.96 572.252 64.12 512.015 64.12S393.328 75.96 338.29 99.322c-53.146 22.563-100.87 54.85-141.846 95.974s-78.069 85.063-95.627 149.842l51.938 0.522c19.634-46.596 47.753-74.402 83.567-110.347h-0.002zM787.708 788.68c-35.818 35.947-77.513 64.162-123.94 83.868-48.047 20.396-99.107 30.74-151.755 30.74s-103.708-10.344-151.756-30.74c-46.424-19.706-88.124-47.922-123.939-83.868-35.814-35.943-63.93-60.01-83.567-106.597l-51.938-0.424c22.48 53.343 54.65 105.917 95.627 147.039 40.976 41.124 88.7 73.418 141.846 95.975 55.038 23.362 113.486 35.209 173.725 35.209 60.24 0 118.685-11.847 173.726-35.21 53.145-22.562 100.87-54.85 141.848-95.974 40.976-41.122 73.148-93.696 95.624-147.039l-57.534 0.424c-19.634 46.588-42.152 70.654-77.967 106.597zM179.19 624.702l33.84-151.743 34.616 151.743h50.94l64.221-222.825 63.185 222.825h51.555l33.841-151.743 34.615 151.743h50.937l64.14-222.572 63.257 222.572h51.517l33.881-151.743 34.578 151.743h51.012L959.73 401.31h-52.363l-38.32 144.742-33.417-144.743h-51.207l-34.576 144.743-37.47-144.743H608.98l-38.205 144.743-33.496-144.743h-51.13l-34.537 144.743-37.507-144.742H310.624l-38.202 144.743-33.496-144.743h-51.13L153.26 546.053l-37.51-144.743H64.27l63.364 223.392h51.554z" p-id="8999" fill="#BF7A6A"></path></svg>