<?xml version="1.0" standalone="no"?><!DOCTYPE svg PUBLIC "-//W3C//DTD SVG 1.1//EN" "http://www.w3.org/Graphics/SVG/1.1/DTD/svg11.dtd"><svg t="1573718566746" class="icon" viewBox="0 0 1024 1024" version="1.1" xmlns="http://www.w3.org/2000/svg" p-id="14316" xmlns:xlink="http://www.w3.org/1999/xlink" width="128" height="128"><defs><style type="text/css"></style></defs><path d="M255.8 128H192c-35.3 0-64 28.7-64 64v63.8c0 35.3 28.7 64 64 64h63.8c35.3 0 64-28.7 64-64V192c0-35.4-28.7-64-64-64z m0 127.7H192V192h63.8v63.7zM262.1 383.8h-63.8c-35.3 0-64 28.7-64 64v63.8c0 35.3 28.7 64 64 64h63.8c35.3 0 64-28.7 64-64v-63.8c0-35.4-28.7-64-64-64z m0 127.7h-63.8v-63.8h63.8v63.8zM255.8 640H192c-35.3 0-64 28.7-64 64v63.8c0 35.3 28.7 64 64 64h63.8c35.3 0 64-28.7 64-64V704c0-35.4-28.7-64-64-64zM832.2 192v63.8H448.1V192h384.1m0-64H448.1c-35.3 0-64 28.7-64 64v63.8c0 35.3 28.7 64 64 64h384.1c35.3 0 64-28.7 64-64V192c0-35.4-28.7-64-64-64z" p-id="14317" fill="#ffffff"></path><path d="M832.2 447.8v63.8H448.1v-63.8h384.1m0-64H448.1c-35.3 0-64 28.7-64 64v63.8c0 35.3 28.7 64 64 64h384.1c35.3 0 64-28.7 64-64v-63.8c0-35.4-28.7-64-64-64z" p-id="14318" fill="#ffffff"></path><path d="M832.2 704v63.8H448.1V704h384.1m0-64H448.1c-35.3 0-64 28.7-64 64v63.8c0 35.3 28.7 64 64 64h384.1c35.3 0 64-28.7 64-64V704c0-35.4-28.7-64-64-64z" p-id="14319" fill="#ffffff"></path></svg>