<?xml version="1.0" standalone="no"?><!DOCTYPE svg PUBLIC "-//W3C//DTD SVG 1.1//EN" "http://www.w3.org/Graphics/SVG/1.1/DTD/svg11.dtd"><svg t="1573610898401" class="icon" viewBox="0 0 1090 1024" version="1.1" xmlns="http://www.w3.org/2000/svg" p-id="1784" xmlns:xlink="http://www.w3.org/1999/xlink" width="136.25" height="128"><defs><style type="text/css"></style></defs><path d="M985.903987 770.305469H58.268865A58.268865 58.268865 0 0 1 0 712.036604V58.268865A58.268865 58.268865 0 0 1 58.268865 0h927.635122a58.287457 58.287457 0 0 1 58.287458 58.268865v653.767739a58.287457 58.287457 0 0 1-58.287458 58.268865zM973.093761 82.736582a11.657491 11.657491 0 0 0-11.657491-11.657491H78.08846a11.657491 11.657491 0 0 0-11.657492 11.657491v610.651754a11.657491 11.657491 0 0 0 11.657492 11.657492h883.34781a11.638899 11.638899 0 0 0 11.657491-11.657492zM742.342363 278.515506h123.528506v358.946619h-123.528506zM545.410705 167.815818h124.681241v469.646307h-124.681241zM350.784516 390.38652h123.528506v247.075605h-123.528506z m-172.501126 109.546954h123.528506v137.584429H178.28339z m179.47331 316.983368a11.638899 11.638899 0 0 1 11.657491-11.638899h303.057593a11.638899 11.638899 0 0 1 11.638899 11.638899v99.060789h199.25572v69.926356H156.158327v-69.926356h201.616965z m0 0" p-id="1785" fill="#6FB4CE"></path></svg>