<?xml version="1.0" standalone="no"?><!DOCTYPE svg PUBLIC "-//W3C//DTD SVG 1.1//EN" "http://www.w3.org/Graphics/SVG/1.1/DTD/svg11.dtd"><svg t="1573611096221" class="icon" viewBox="0 0 1024 1024" version="1.1" xmlns="http://www.w3.org/2000/svg" p-id="1959" xmlns:xlink="http://www.w3.org/1999/xlink" width="128" height="128"><defs><style type="text/css"></style></defs><path d="M215.578947 456.326737h113.071158l88.818527-133.766737a45.810526 45.810526 0 0 1 80.734315 8.407579l80.464842 202.213053 58.906948-57.613474a67.368421 67.368421 0 0 1 47.104-19.240421H808.421053V269.365895a26.947368 26.947368 0 0 0-26.947369-26.947369H242.526316a26.947368 26.947368 0 0 0-26.947369 26.947369v187.014737z m0 80.842105v136.407579a26.947368 26.947368 0 0 0 26.947369 26.947368h538.947368a26.947368 26.947368 0 0 0 26.947369-26.947368v-136.353684h-118.245053l-92.537263 90.543158a45.810526 45.810526 0 0 1-74.644211-15.791158L447.865263 423.073684l-55.834947 84.07579a67.368421 67.368421 0 0 1-56.104421 30.073263H215.578947zM242.526316 161.576421h538.947368a107.789474 107.789474 0 0 1 107.789474 107.789474v404.210526a107.789474 107.789474 0 0 1-107.789474 107.789474H242.526316a107.789474 107.789474 0 0 1-107.789474-107.789474v-404.210526a107.789474 107.789474 0 0 1 107.789474-107.789474zM336.842105 835.368421h350.31579a40.421053 40.421053 0 1 1 0 80.842105h-350.31579a40.421053 40.421053 0 0 1 0-80.842105z" p-id="1960" fill="#6FB4CE"></path></svg>