<?xml version="1.0" standalone="no"?><!DOCTYPE svg PUBLIC "-//W3C//DTD SVG 1.1//EN" "http://www.w3.org/Graphics/SVG/1.1/DTD/svg11.dtd"><svg t="1573727315469" class="icon" viewBox="0 0 1024 1024" version="1.1" xmlns="http://www.w3.org/2000/svg" p-id="13286" xmlns:xlink="http://www.w3.org/1999/xlink" width="128" height="128"><defs><style type="text/css"></style></defs><path d="M240 545.6c4.8-4.8 8-11.2 8-19.2s-3.2-12.8-8-19.2c-4.8-4.8-11.2-8-19.2-8s-12.8 3.2-19.2 8c-4.8 4.8-8 11.2-8 17.6 0 8 3.2 14.4 8 19.2 4.8 4.8 11.2 6.4 19.2 6.4 8 3.2 14.4 0 19.2-4.8zM342.4 371.2c-1.6-3.2-4.8-6.4-8-9.6-3.2-1.6-6.4-3.2-11.2-3.2-6.4 0-12.8 1.6-16 6.4-3.2 4.8-6.4 11.2-6.4 20.8v137.6c0 9.6 1.6 16 6.4 20.8 4.8 4.8 9.6 8 17.6 8 6.4 0 12.8-3.2 17.6-8 4.8-4.8 6.4-12.8 6.4-22.4V464c0-19.2 1.6-32 3.2-40 3.2-9.6 8-16 16-20.8 6.4-4.8 14.4-8 24-8 12.8 0 22.4 4.8 25.6 12.8 4.8 8 6.4 20.8 6.4 36.8v80c0 9.6 1.6 16 6.4 20.8 4.8 4.8 9.6 8 17.6 8 6.4 0 12.8-3.2 17.6-8 4.8-4.8 6.4-12.8 6.4-22.4v-88c0-11.2 0-19.2-1.6-25.6-1.6-6.4-3.2-12.8-6.4-19.2-4.8-9.6-12.8-17.6-22.4-24-9.6-4.8-20.8-8-33.6-8s-24 3.2-33.6 8c-9.6 4.8-19.2 12.8-27.2 24V384c-1.6-4.8-3.2-9.6-4.8-12.8zM680 462.4c6.4-3.2 9.6-11.2 9.6-24s-3.2-25.6-9.6-38.4c-6.4-12.8-16-22.4-30.4-30.4-12.8-8-28.8-11.2-48-11.2-14.4 0-27.2 1.6-38.4 6.4-11.2 4.8-22.4 11.2-30.4 19.2s-14.4 19.2-17.6 30.4c-4.8 12.8-6.4 25.6-6.4 40 0 30.4 8 54.4 25.6 70.4 17.6 17.6 41.6 25.6 72 25.6 12.8 0 25.6-1.6 35.2-4.8 9.6-3.2 19.2-8 25.6-12.8 6.4-4.8 11.2-11.2 16-16 3.2-6.4 4.8-11.2 4.8-14.4 0-4.8-1.6-8-4.8-11.2-3.2-3.2-6.4-4.8-11.2-4.8-4.8 0-8 1.6-11.2 3.2-6.4 4.8-11.2 9.6-14.4 12.8-3.2 3.2-8 6.4-12.8 9.6-4.8 3.2-9.6 4.8-14.4 6.4-4.8 1.6-9.6 1.6-16 1.6-8 0-16-1.6-24-6.4-6.4-4.8-12.8-11.2-17.6-19.2-4.8-8-6.4-17.6-6.4-28.8h92.8c16 1.6 25.6 0 32-3.2z m-108.8-57.6c8-8 17.6-12.8 28.8-12.8 12.8 0 22.4 4.8 30.4 12.8s12.8 20.8 12.8 36.8h-86.4c3.2-17.6 8-28.8 14.4-36.8zM716.8 368c-3.2 3.2-6.4 8-6.4 12.8 0 4.8 1.6 9.6 4.8 12.8 3.2 3.2 9.6 4.8 16 4.8h6.4v91.2c0 14.4 1.6 27.2 3.2 35.2 1.6 9.6 8 16 14.4 20.8 8 4.8 19.2 8 33.6 8 16 0 27.2-1.6 36.8-6.4 8-4.8 12.8-9.6 12.8-17.6 0-4.8-1.6-8-4.8-11.2-3.2-3.2-6.4-4.8-9.6-4.8-3.2 0-6.4 0-11.2 1.6-4.8 1.6-8 1.6-11.2 1.6-4.8 0-9.6-1.6-11.2-3.2l-4.8-9.6v-105.6h9.6c9.6 0 16-1.6 22.4-3.2 4.8-3.2 8-6.4 8-12.8 0-4.8-1.6-9.6-4.8-12.8-3.2-3.2-8-4.8-16-4.8h-17.6v-32c0-8 0-14.4-1.6-19.2-1.6-4.8-3.2-8-6.4-11.2-4.8-4.8-9.6-6.4-16-6.4-4.8 0-8 1.6-11.2 3.2-3.2 1.6-6.4 4.8-8 8-1.6 3.2-3.2 6.4-3.2 11.2V364.8H736c-9.6-1.6-16 0-19.2 3.2z" fill="#ffffff" p-id="13287"></path></svg>