<?xml version="1.0" standalone="no"?><!DOCTYPE svg PUBLIC "-//W3C//DTD SVG 1.1//EN" "http://www.w3.org/Graphics/SVG/1.1/DTD/svg11.dtd"><svg t="1573743110256" class="icon" viewBox="0 0 1024 1024" version="1.1" xmlns="http://www.w3.org/2000/svg" p-id="24297" xmlns:xlink="http://www.w3.org/1999/xlink" width="128" height="128"><defs><style type="text/css"></style></defs><path d="M976.976524 44.151276L906.099077 5.207062a42.219418 42.219418 0 0 0-55.985507 14.226664l-309.455541 510.11292a37.511313 37.511313 0 0 0-5.015155 25.178126l17.245993 111.203388 109.309911-41.656492a40.530641 40.530641 0 0 0 20.265321-16.683067l309.506715-510.164095a38.023064 38.023064 0 0 0-14.99429-53.27323z m-133.925112 826.323568a51.175052 51.175052 0 0 1-51.175052 51.175052h-562.925574a51.175052 51.175052 0 0 1-51.175052-51.175052v-665.275679a51.175052 51.175052 0 0 1 51.175052-51.175052h307.050313v-102.350104h-358.225365a102.350104 102.350104 0 0 0-102.350104 102.350104v767.625783a102.350104 102.350104 0 0 0 102.350104 102.350104h665.275678a102.350104 102.350104 0 0 0 102.350105-102.350104v-307.050313h-102.350105v255.875261z m-562.925573-51.175053h460.575469v-102.350104h-460.575469v102.350104z m0-409.400417h204.700208v-102.350104h-204.700208v102.350104z m0 102.350104v102.350105h153.525156v-102.350105h-153.525156z" p-id="24298" fill="#6FB4CE"></path></svg>