<?xml version="1.0" standalone="no"?><!DOCTYPE svg PUBLIC "-//W3C//DTD SVG 1.1//EN" "http://www.w3.org/Graphics/SVG/1.1/DTD/svg11.dtd"><svg t="1573549595671" class="icon" viewBox="0 0 1024 1024" version="1.1" xmlns="http://www.w3.org/2000/svg" p-id="7956" width="128" height="128" xmlns:xlink="http://www.w3.org/1999/xlink"><defs><style type="text/css"></style></defs><path d="M939.38634161 169.98538818L828.30762177 78.02908086A63.83511211 63.83511211 0 0 0 790.9064334 62H121.90320723A65.52238359 65.52238359 0 0 0 62.0050625 128.084808v779.80073292A56.24238955 56.24238955 0 0 0 121.90320723 961.87823545h780.08194511A56.24238955 56.24238955 0 0 0 961.88329795 907.88554092V216.94778369a60.46056914 60.46056914 0 0 0-22.49695635-46.96239551z m-337.45433819-48.08724345h89.98782363v179.97564727h-89.98782363z m-300.05314892 0h240.15500419v179.97564727H301.8788545z m449.93911728 780.08194511H272.07038779V691.91476455h479.74758399z m-1e-8-269.96347002H272.07038779v-60.17935693h479.74758399z m150.16718057 269.96347002h-89.98782275V571.83726289A60.17935693 60.17935693 0 0 0 751.81797177 511.93911729H272.07038779a60.17935693 60.17935693 0 0 0-60.17935693 59.8981456v330.14282695h-89.98782363V121.89814472H241.98070977v179.97564727a60.17935693 60.17935693 0 0 0 59.89814473 60.17935694H691.91982705a59.89814473 59.89814473 0 0 0 59.89814472-60.17935694v-179.97564726h30.08967891v3.09333164l120.07750166 91.95630732z" fill="#D2A968" p-id="7957"></path></svg>