<?xml version="1.0" standalone="no"?><!DOCTYPE svg PUBLIC "-//W3C//DTD SVG 1.1//EN" "http://www.w3.org/Graphics/SVG/1.1/DTD/svg11.dtd"><svg t="1573623582337" class="icon" viewBox="0 0 1024 1024" version="1.1" xmlns="http://www.w3.org/2000/svg" p-id="3819" width="128" height="128" xmlns:xlink="http://www.w3.org/1999/xlink"><defs><style type="text/css"></style></defs><path d="M744.448 91.648H284.672c-96.256 0-175.616 78.848-175.616 175.616v488.96c0 96.256 78.848 175.616 175.616 175.616h459.776c96.256 0 175.616-78.848 175.616-175.616V267.264c0-96.768-78.848-175.616-175.616-175.616zM167.424 400.384h693.76v190.976H167.424V400.384z m117.248-250.368h459.776c64.512 0.512 116.736 52.224 116.736 116.736v75.264H167.424V267.264c0.512-64.512 52.736-116.736 117.248-117.248z m459.776 723.456H284.672c-64.512-0.512-116.736-52.224-116.736-116.736V650.24h693.76v105.984c-0.512 64.512-52.736 116.736-117.248 117.248z" fill="#FFFFFF" p-id="3820"></path><path d="M672.256 246.272c0 25.088 20.48 45.056 45.056 45.056 25.088 0 45.056-20.48 45.056-45.056s-20.48-45.056-45.056-45.056c-24.576-0.512-45.056 19.968-45.056 45.056zM672.256 496.128c0 25.088 20.48 45.056 45.056 45.056 25.088 0 45.056-20.48 45.056-45.056s-20.48-45.056-45.056-45.056c-24.576-0.512-45.056 19.968-45.056 45.056zM672.256 745.984c0 25.088 20.48 45.056 45.056 45.056 25.088 0 45.056-20.48 45.056-45.056 0-25.088-20.48-45.056-45.056-45.056-24.576 0-45.056 19.968-45.056 45.056z" fill="#FFFFFF" p-id="3821"></path></svg>