<?xml version="1.0" standalone="no"?><!DOCTYPE svg PUBLIC "-//W3C//DTD SVG 1.1//EN" "http://www.w3.org/Graphics/SVG/1.1/DTD/svg11.dtd"><svg t="1573637740386" class="icon" viewBox="0 0 1024 1024" version="1.1" xmlns="http://www.w3.org/2000/svg" p-id="9788" width="128" height="128" xmlns:xlink="http://www.w3.org/1999/xlink"><defs><style type="text/css"></style></defs><path d="M899.032 254.836c-1.88-0.822-3.957-1.477-6.249-1.927-141.138-27.788-256.594-95.312-370.208-181.836-7.105-5.413-21.344-5.618-28.439-0.157-51.966 39.982-105.515 78.932-162.547 111.213-62.475 35.366-138.85 51.951-207.747 70.184-18.362 4.858-23.042 22.174-18.307 36.265 5.76 130.955 27.164 268.447 81.788 387.71C245 802.22 380.954 896.475 502.125 953.918c4.2 1.991 8.333 2.91 12.277 2.977 5.075 0.604 10.561-0.22 16.165-2.977 121.398-59.735 246.036-153.745 307.506-277.63 58.547-117.99 76.862-263.704 82.086-394.51 0.631-15.755-9.377-24.72-21.127-26.942z m-109.61 392.713c-50.939 111.217-166 195.238-273.333 250.188-107.355-53.072-216.85-131.974-274.347-238.565-56.265-104.31-73.477-239.132-79.307-358.262 60.946-16.285 121.882-33.676 179.625-59.245 59.611-26.397 114.64-68.259 166.701-108.522 108.83 78.88 220.792 142.97 353.948 172.154-6.253 115.566-25.354 237.6-73.288 342.252z" p-id="9789" fill="#FFFFFF"></path><path d="M695.105 368.064A9337628.212 9337628.212 0 0 0 474.1 591.409a3252429.95 3252429.95 0 0 1-117.154-118.398c-25.715-25.988-65.559 14.28-39.844 40.267 44.952 45.425 89.9 90.855 134.851 136.28 0.662 0.67 1.337 1.284 2.016 1.867 9.93 10.294 26.512 14.067 39.495 0.946 80.495-81.349 160.986-162.697 241.482-244.043 25.715-25.988-14.125-66.253-39.84-40.264z" p-id="9790" fill="#FFFFFF"></path></svg>