<?xml version="1.0" standalone="no"?><!DOCTYPE svg PUBLIC "-//W3C//DTD SVG 1.1//EN" "http://www.w3.org/Graphics/SVG/1.1/DTD/svg11.dtd"><svg t="1573716476189" class="icon" viewBox="0 0 1130 1024" version="1.1" xmlns="http://www.w3.org/2000/svg" p-id="12613" xmlns:xlink="http://www.w3.org/1999/xlink" width="141.25" height="128"><defs><style type="text/css"></style></defs><path d="M237.334779 814.758331V1000.892798H54.311442v-186.134467a44.444715 44.444715 0 0 1 44.444715-44.444715H192.890064a44.444715 44.444715 0 0 1 44.444715 44.444715z m283.690617-236.40144V1000.892798H333.424253v-422.535907a44.444715 44.444715 0 0 1 44.444715-44.444716h98.667268a44.444715 44.444715 0 0 1 44.444715 44.444716z m277.557246 90.000548V1000.892798h-186.045577v-332.535359a44.444715 44.444715 0 0 1 44.444715-44.444715h97.156147a44.444715 44.444715 0 0 1 44.444715 44.444715z m280.668377-228.801394V1000.892798h-187.601143V439.556045a44.444715 44.444715 0 0 1 44.444715-44.444715h98.667268a44.444715 44.444715 0 0 1 44.444715 44.444715zM32.666866 515.156506L407.558038 170.532184a44.444715 44.444715 0 0 1 61.244818 1.022229l185.423351 182.178887a44.444715 44.444715 0 0 0 64.889285-2.755572l204.534579-238.00145-14.04453-14.80009A44.444715 44.444715 0 0 1 941.827959 23.109064h92.978345a44.444715 44.444715 0 0 1 44.444715 44.444715v79.156038a44.444715 44.444715 0 0 1-76.356021 30.977966l-7.911159-8.177827-275.290566 333.202029a44.444715 44.444715 0 0 1-66.133736 2.666683l-187.245585-192.445616a44.444715 44.444715 0 0 0-62.133712-1.555565L101.778398 592.890313a44.444715 44.444715 0 0 1-66.667073-6.977821l-8.711164-12.44452a44.444715 44.444715 0 0 1 6.266705-58.311466z" p-id="12614" fill="#ffffff"></path></svg>