<?xml version="1.0" standalone="no"?><!DOCTYPE svg PUBLIC "-//W3C//DTD SVG 1.1//EN" "http://www.w3.org/Graphics/SVG/1.1/DTD/svg11.dtd"><svg t="1573733002387" class="icon" viewBox="0 0 1024 1024" version="1.1" xmlns="http://www.w3.org/2000/svg" p-id="22523" xmlns:xlink="http://www.w3.org/1999/xlink" width="128" height="128"><defs><style type="text/css"></style></defs><path d="M668.330667 515.754667c-7.168 0-13.312-2.730667-18.432-7.850667l-137.557334-136.192-136.192 136.192c-10.581333 10.581333-27.306667 10.581333-37.205333 0-10.581333-10.581333-10.581333-27.306667 0-37.205333l154.624-155.989334c9.898667-9.898667 27.306667-9.898667 37.205333 0l154.624 154.624c10.581333 10.581333 10.581333 27.306667 0 37.205334-3.754667 6.485333-11.264 9.216-17.066666 9.216z m0 0" fill="#ffffff" p-id="22524"></path><path d="M512.341333 703.488c-15.36 0-26.624-11.264-26.624-26.624V331.776c0-15.36 11.264-26.624 26.624-26.624s26.624 11.264 26.624 26.624v345.088c-0.341333 15.36-11.605333 26.624-26.624 26.624z m0 0" fill="#ffffff" p-id="22525"></path><path d="M686.762667 982.357333H333.141333c-161.450667 0-292.181333-130.730667-292.181333-292.181333V336.554667C40.96 175.104 171.690667 44.373333 333.141333 44.373333h353.621334c161.450667 0 292.181333 130.730667 292.181333 292.181334v353.621333c0 161.450667-130.730667 292.181333-292.181333 292.181333zM333.141333 97.621333c-132.096 0-238.933333 106.837333-238.933333 238.933334v353.621333c0 132.096 106.837333 238.933333 238.933333 238.933333h353.621334c132.096 0 238.933333-106.837333 238.933333-238.933333V336.554667c0-132.096-106.837333-238.933333-238.933333-238.933334H333.141333z m0 0" fill="#ffffff" p-id="22526"></path></svg>